HIERARCHY
ROOT Hips
{
    OFFSET   0.000000   0.000000   0.000000
    CHANNELS 6 Xposition Yposition Zposition Zrotation Xrotation Yrotation
    JOINT Chest
    {
        OFFSET   0.000000   8.007230   0.000000
        CHANNELS 3 Zrotation Xrotation Yrotation
        JOINT Chest2
        {
            OFFSET   0.000000  22.077100   0.000000
            CHANNELS 3 Zrotation Xrotation Yrotation
            JOINT Neck
            {
                OFFSET   0.000000  23.254800  -0.000021
                CHANNELS 3 Zrotation Xrotation Yrotation
                JOINT Head
                {
                    OFFSET   0.000000  14.370000   1.956610
                    CHANNELS 3 Zrotation Xrotation Yrotation
                    End Site
                    {
                        OFFSET   0.000000  19.566000   0.000000
                    }
                }
            }
            JOINT LeftCollar
            {
                OFFSET   3.911900  19.017000  -0.467063
                CHANNELS 3 Zrotation Xrotation Yrotation
                JOINT LeftShoulder
                {
                    OFFSET  10.383700   0.000000   0.000000
                    CHANNELS 3 Zrotation Xrotation Yrotation
                    JOINT LeftElbow
                    {
                        OFFSET  26.662100   0.001529   0.000325
                        CHANNELS 3 Zrotation Xrotation Yrotation
                        JOINT LeftWrist
                        {
                            OFFSET  28.869000  -0.000011  -0.000096
                            CHANNELS 3 Zrotation Xrotation Yrotation
                            JOINT LeftFinger0
                            {
                                OFFSET   2.044650  -2.323460   3.252850
                                CHANNELS 3 Zrotation Xrotation Yrotation
                                JOINT LeftFinger01
                                {
                                    OFFSET   3.088130   0.000000   0.000000
                                    CHANNELS 3 Zrotation Xrotation Yrotation
                                    JOINT LeftFinger02
                                    {
                                        OFFSET   2.639460   0.000000   0.000000
                                        CHANNELS 3 Zrotation Xrotation Yrotation
                                        End Site
                                        {
                                            OFFSET   2.582190   0.000000   0.000000
                                        }
                                    }
                                }
                            }
                            JOINT LeftFinger1
                            {
                                OFFSET   8.364480   0.000000   3.252850
                                CHANNELS 3 Zrotation Xrotation Yrotation
                                JOINT LeftFinger11
                                {
                                    OFFSET   4.646930   0.000000   0.000000
                                    CHANNELS 3 Zrotation Xrotation Yrotation
                                    JOINT LeftFinger12
                                    {
                                        OFFSET   2.323460   0.000000   0.000000
                                        CHANNELS 3 Zrotation Xrotation Yrotation
                                        End Site
                                        {
                                            OFFSET   2.273050   0.000000   0.000000
                                        }
                                    }
                                }
                            }
                            JOINT LeftFinger2
                            {
                                OFFSET   8.364480   0.000016   1.078090
                                CHANNELS 3 Zrotation Xrotation Yrotation
                                JOINT LeftFinger21
                                {
                                    OFFSET   5.111620   0.000000   0.000000
                                    CHANNELS 3 Zrotation Xrotation Yrotation
                                    JOINT LeftFinger22
                                    {
                                        OFFSET   2.788160   0.000017   0.000000
                                        CHANNELS 3 Zrotation Xrotation Yrotation
                                        End Site
                                        {
                                            OFFSET   2.727660   0.000000   0.000000
                                        }
                                    }
                                }
                            }
                            JOINT LeftFinger3
                            {
                                OFFSET   7.899780   0.000015  -1.078090
                                CHANNELS 3 Zrotation Xrotation Yrotation
                                JOINT LeftFinger31
                                {
                                    OFFSET   4.646920   0.000000   0.000000
                                    CHANNELS 3 Zrotation Xrotation Yrotation
                                    JOINT LeftFinger32
                                    {
                                        OFFSET   2.323470   0.000000   0.000000
                                        CHANNELS 3 Zrotation Xrotation Yrotation
                                        End Site
                                        {
                                            OFFSET   2.273050   0.000000   0.000000
                                        }
                                    }
                                }
                            }
                            JOINT LeftFinger4
                            {
                                OFFSET   7.435090   0.000000  -3.252850
                                CHANNELS 3 Zrotation Xrotation Yrotation
                                JOINT LeftFinger41
                                {
                                    OFFSET   3.717550   0.000000   0.000000
                                    CHANNELS 3 Zrotation Xrotation Yrotation
                                    JOINT LeftFinger42
                                    {
                                        OFFSET   1.858760   0.000000   0.000000
                                        CHANNELS 3 Zrotation Xrotation Yrotation
                                        End Site
                                        {
                                            OFFSET   1.818440   0.000000   0.000000
                                        }
                                    }
                                }
                            }
                        }
                    }
                }
            }
            JOINT RightCollar
            {
                OFFSET  -3.911900  19.017000  -0.467062
                CHANNELS 3 Zrotation Xrotation Yrotation
                JOINT RightShoulder
                {
                    OFFSET -10.383700   0.000015   0.000000
                    CHANNELS 3 Zrotation Xrotation Yrotation
                    JOINT RightElbow
                    {
                        OFFSET -26.662100   0.001341   0.000385
                        CHANNELS 3 Zrotation Xrotation Yrotation
                        JOINT RightWrist
                        {
                            OFFSET -28.869000   0.000025  -0.000080
                            CHANNELS 3 Zrotation Xrotation Yrotation
                            JOINT RightFinger0
                            {
                                OFFSET  -2.044650  -2.323490   3.252850
                                CHANNELS 3 Zrotation Xrotation Yrotation
                                JOINT RightFinger01
                                {
                                    OFFSET  -3.088130   0.000000   0.000000
                                    CHANNELS 3 Zrotation Xrotation Yrotation
                                    JOINT RightFinger02
                                    {
                                        OFFSET  -2.639460   0.000000   0.000000
                                        CHANNELS 3 Zrotation Xrotation Yrotation
                                        End Site
                                        {
                                            OFFSET  -2.582190   0.000000   0.000000
                                        }
                                    }
                                }
                            }
                            JOINT RightFinger1
                            {
                                OFFSET  -8.364480   0.000000   3.252850
                                CHANNELS 3 Zrotation Xrotation Yrotation
                                JOINT RightFinger11
                                {
                                    OFFSET  -4.646930   0.000000   0.000000
                                    CHANNELS 3 Zrotation Xrotation Yrotation
                                    JOINT RightFinger12
                                    {
                                        OFFSET  -2.323470   0.000000   0.000000
                                        CHANNELS 3 Zrotation Xrotation Yrotation
                                        End Site
                                        {
                                            OFFSET  -2.273050   0.000000   0.000000
                                        }
                                    }
                                }
                            }
                            JOINT RightFinger2
                            {
                                OFFSET  -8.364480   0.000000   1.078090
                                CHANNELS 3 Zrotation Xrotation Yrotation
                                JOINT RightFinger21
                                {
                                    OFFSET  -5.111610   0.000000   0.000000
                                    CHANNELS 3 Zrotation Xrotation Yrotation
                                    JOINT RightFinger22
                                    {
                                        OFFSET  -2.788160   0.000000   0.000000
                                        CHANNELS 3 Zrotation Xrotation Yrotation
                                        End Site
                                        {
                                            OFFSET  -2.727660   0.000000   0.000000
                                        }
                                    }
                                }
                            }
                            JOINT RightFinger3
                            {
                                OFFSET  -7.899780   0.000000  -1.078090
                                CHANNELS 3 Zrotation Xrotation Yrotation
                                JOINT RightFinger31
                                {
                                    OFFSET  -4.646920   0.000000   0.000000
                                    CHANNELS 3 Zrotation Xrotation Yrotation
                                    JOINT RightFinger32
                                    {
                                        OFFSET  -2.323470   0.000000   0.000000
                                        CHANNELS 3 Zrotation Xrotation Yrotation
                                        End Site
                                        {
                                            OFFSET  -2.273050   0.000000   0.000000
                                        }
                                    }
                                }
                            }
                            JOINT RightFinger4
                            {
                                OFFSET  -7.435090   0.000000  -3.252850
                                CHANNELS 3 Zrotation Xrotation Yrotation
                                JOINT RightFinger41
                                {
                                    OFFSET  -3.717550   0.000000   0.000000
                                    CHANNELS 3 Zrotation Xrotation Yrotation
                                    JOINT RightFinger42
                                    {
                                        OFFSET  -1.858770   0.000000   0.000000
                                        CHANNELS 3 Zrotation Xrotation Yrotation
                                        End Site
                                        {
                                            OFFSET  -1.818440   0.000000   0.000000
                                        }
                                    }
                                }
                            }
                        }
                    }
                }
            }
        }
    }
    JOINT LeftHip
    {
        OFFSET   9.783010   0.000000   0.000000
        CHANNELS 3 Zrotation Xrotation Yrotation
        JOINT LeftKnee
        {
            OFFSET   0.000070 -41.789100   0.000028
            CHANNELS 3 Zrotation Xrotation Yrotation
            JOINT LeftAnkle
            {
                OFFSET   0.000087 -41.133200  -0.000100
                CHANNELS 3 Zrotation Xrotation Yrotation
                JOINT LeftToe
                {
                    OFFSET   0.000000  -6.358960  14.674500
                    CHANNELS 3 Zrotation Xrotation Yrotation
                    End Site
                    {
                        OFFSET   0.000000   0.000000   3.913200
                    }
                }
            }
        }
    }
    JOINT RightHip
    {
        OFFSET  -9.783020   0.000000   0.000000
        CHANNELS 3 Zrotation Xrotation Yrotation
        JOINT RightKnee
        {
            OFFSET   0.000044 -41.789100  -0.000870
            CHANNELS 3 Zrotation Xrotation Yrotation
            JOINT RightAnkle
            {
                OFFSET  -0.000090 -41.133200  -0.000245
                CHANNELS 3 Zrotation Xrotation Yrotation
                JOINT RightToe
                {
                    OFFSET   0.000000  -6.358960  14.674500
                    CHANNELS 3 Zrotation Xrotation Yrotation
                    End Site
                    {
                        OFFSET   0.000000   0.000000   3.913200
                    }
                }
            }
        }
    }
}
MOTION
Frames: 6
Frame Time:   0.016667
 -5.819500  89.022700  -0.592744   0.223864 -11.400500  -0.321297   1.202590   6.693690  -0.955778   2.544630  13.364600  -2.075350   3.248260   0.429438  -0.024391   5.337320   0.862516  16.088200   4.203320   5.535140   7.477240 -85.409300 -39.616400 -14.810600   3.124330 -18.723500 -105.135000  38.964500 -13.421200  -0.767729  46.192900  30.776000 -65.864400  -4.113960   0.003685   0.000315   2.943020   0.001963  -0.002114 -11.138100  -1.484110   7.494360  -9.192320  -0.003459   0.004506  -6.434620  -0.003043   0.002740 -10.344700  -1.379720   7.514480 -10.435100   0.000991   0.000083  -6.949800   0.000665  -0.001674  -3.928170  -0.526597   7.621380  -3.963070  -0.008312   0.003592  -2.639400  -0.006187  -0.000249  -5.604620  -1.068960  10.759400  -8.558430  -0.001060  -0.000418  -5.699920   0.010420   0.000153  -3.330860   3.979070  -0.001254  85.630100 -29.103100  28.281900  -8.779040 -26.806600  91.187200 -49.700000   2.590770  15.469500 -44.867300  29.998900  65.947400  10.048000  -0.004818  -0.002648   0.023994  -0.001750  -0.000826  11.041700  -0.114710  -0.587677   9.034580   0.001658  -0.009216   6.324210   0.005205  -0.003634   6.742990  -0.543296  -4.584880   6.764720   0.001533   0.006187   4.505300   0.001290   0.000348   8.784570  -1.651630 -10.565200   8.937280   0.003746   0.008320   5.952240   0.003384   0.002076  14.437300  -3.712770 -14.117900  22.345800   0.004900   0.006350  14.882300   0.004478   0.002997   3.907710   8.548170  -2.189120   1.811150  11.965100  14.473300  -6.951980  -7.716540  -3.489460  -0.000000   0.000000  -0.000000   1.846240  13.861700  -6.091530   1.527210   1.872670 -13.858100  -0.931768  -5.218070   1.827530   0.000000   0.000000   0.000000
 -5.737020  89.032600  -0.577297   0.224310 -11.290600  -0.299285   1.183490   6.639140  -0.933254   2.501950  13.256400  -2.026020   3.209740   0.399671  -0.022739   5.273730   0.802678  15.893300   4.177860   5.536090   7.482030 -85.176700 -39.557000 -14.515400   3.215010 -18.772500 -105.051000  38.965400 -13.523700  -0.752570  46.225800  30.808000 -65.827800  -4.029340   0.003701   0.000280   2.985350   0.001944  -0.002095 -11.078500  -1.473100   7.490360  -9.142740  -0.003405   0.004540  -6.399920  -0.002997   0.002745 -10.291600  -1.369830   7.510110 -10.381100   0.000999   0.000081  -6.913810   0.000673  -0.001702  -3.814460  -0.510109   7.616150  -3.848140  -0.008358   0.003614  -2.562870  -0.006130  -0.000191  -5.425000  -1.024530  10.691700  -8.280780   0.003966  -0.000311  -5.515000   0.010541   0.000252  -3.297550   3.995850   0.020296  85.556100 -29.091700  28.192000  -8.817050 -26.705900  91.178100 -49.697300   2.684340  15.469500 -44.909600  30.069200  66.031100  10.003100  -0.004897  -0.002745   0.001543  -0.001835  -0.000926  11.074700  -0.108244  -0.551237   9.061510   0.001660  -0.009215   6.343070   0.005250  -0.003640   6.831750  -0.546560  -4.556320   6.853480   0.001560   0.006249   4.564410   0.001318   0.000316   8.852970  -1.653150 -10.483100   9.004810   0.003796   0.008392   5.997200   0.003420   0.002074  14.458900  -3.693840 -14.018800  22.365000   0.004943   0.006382  14.895000   0.004519   0.003004   3.867930   8.514550  -2.199440   1.807170  11.831000  14.474400  -6.904730  -7.661170  -3.469290   0.000000   0.000000  -0.000000   1.777400  13.758900  -5.844730   1.557260   1.864410 -14.128100  -0.900615  -5.202750   1.843020   0.000000   0.000000   0.000000
 -5.651350  89.042400  -0.563191   0.225530 -11.177000  -0.274797   1.161500   6.581920  -0.906965   2.453020  13.143100  -1.968730   3.188720   0.369848  -0.021229   5.238980   0.742622  15.777600   4.155190   5.536950   7.494150 -84.991500 -39.477300 -14.275100   3.319510 -18.817500 -104.922000  38.965800 -13.624500  -0.739729  46.312100  30.813100 -65.794800  -3.944720   0.003712   0.000244   3.027670   0.001926  -0.002073 -11.018400  -1.465320   7.489770  -9.093160  -0.003354   0.004573  -6.365220  -0.002948   0.002752 -10.237900  -1.363210   7.509470 -10.327100   0.001000   0.000080  -6.877820   0.000679  -0.001725  -3.700670  -0.493838   7.615380  -3.733220  -0.008402   0.003637  -2.486330  -0.006072  -0.000131  -5.245270  -0.980081  10.624000  -8.003130   0.009081  -0.000204  -5.330090   0.010613   0.000359  -3.264160   4.020490   0.041369  85.478500 -29.065100  28.083400  -8.876940 -26.627100  91.160100 -49.713200   2.774460  15.469500 -44.924800  30.110700  66.084200   9.989480  -0.004978  -0.002846  -0.005264  -0.001921  -0.001025  11.145600  -0.106155  -0.537846   9.119520   0.001663  -0.009213   6.383670   0.005298  -0.003648   6.947850  -0.555527  -4.547060   6.969870   0.001590   0.006311   4.641930   0.001349   0.000284   8.956260  -1.661050 -10.420500   9.107790   0.003843   0.008464   6.065770   0.003458   0.002071  14.537200  -3.687260 -13.928100  22.481800   0.004988   0.006412  14.972800   0.004560   0.003010   3.822270   8.482810  -2.206890   1.806030  11.682700  14.474800  -6.852490  -7.600150  -3.448240   0.000000   0.000000   0.000000   1.713860  13.657000  -5.616010   1.584930   1.843050 -14.391200  -0.866604  -5.180250   1.866550   0.000000   0.000000   0.000000
 -5.562850  89.051500  -0.548872   0.231074 -11.064200  -0.236354   1.138300   6.523280  -0.879455   2.401550  13.026800  -1.908870   3.176880   0.342585  -0.019637   5.219480   0.687966  15.705000   4.137680   5.535630   7.511590 -84.892200 -39.419600 -14.111400   3.439310 -18.778300 -104.769000  38.933700 -13.687200  -0.690504  46.291000  30.721000 -65.664200  -3.982130   0.003709   0.000285   3.008960   0.001913  -0.002049 -11.086800  -1.500960   7.567430  -9.153610  -0.003312   0.004597  -6.407530  -0.002901   0.002769 -10.261400  -1.367830   7.522910 -10.351100   0.000997   0.000084  -6.893830   0.000684  -0.001739  -3.739280  -0.498669   7.620230  -3.772250  -0.008440   0.003647  -2.512320  -0.006033  -0.000065  -5.331340  -0.999356  10.651600  -8.135200   0.009183  -0.000102  -5.418040   0.009623   0.000463  -3.228620   4.050750   0.052206  85.403100 -29.010100  27.962400  -8.962050 -26.578100  91.119900 -49.723900   2.868110  15.462800 -44.920200  30.104600  66.078300  10.037200  -0.005064  -0.002948   0.018591  -0.002004  -0.001123  11.233300  -0.113921  -0.573977   9.191350   0.001665  -0.009202   6.433950   0.005350  -0.003670   7.072500  -0.570475  -4.583490   7.095250   0.001628   0.006366   4.725430   0.001377   0.000260   9.091210  -1.682270 -10.399500   9.244220   0.003866   0.008545   6.156640   0.003495   0.002063  14.721400  -3.718170 -13.871200  22.763300   0.005035   0.006434  15.160300   0.004602   0.003019   3.768280   8.459590  -2.204460   1.818020  11.516900  14.459300  -6.799990  -7.529570  -3.433150  -0.000000   0.000000   0.000000   1.650920  13.567400  -5.462280   1.612220   1.804770 -14.614300  -0.827334  -5.152910   1.910130  -0.000000   0.000000   0.000000
 -5.470410  89.060500  -0.535125   0.240772 -10.955800  -0.181997   1.113670   6.465420  -0.852309   2.347330  12.912100  -1.849680   3.166330   0.320438  -0.018211   5.202210   0.643718  15.657900   4.119330   5.527630   7.535750 -84.826000 -39.324900 -13.963600   3.582660 -18.718400 -104.606000  38.870500 -13.777000  -0.626971  46.227500  30.635400 -65.551000  -4.244020   0.003706   0.000362   2.878020   0.001898  -0.002022 -11.599400  -1.583260   7.645280  -9.576710  -0.003271   0.004618  -6.703680  -0.002858   0.002786 -10.426600  -1.400280   7.580990 -10.519300   0.000975   0.000090  -7.005890   0.000686  -0.001745  -4.009520  -0.532484   7.654160  -4.045430  -0.008473   0.003658  -2.694250  -0.005995  -0.000000  -5.933280  -1.134180  10.844500  -9.059650   0.009198  -0.000000  -6.033730   0.006122   0.000565  -3.188060   4.085410   0.055899  85.328400 -28.911800  27.834000  -9.095530 -26.561000  91.059300 -49.729100   2.920960  15.427700 -44.915600  30.098500  66.072400  10.104000  -0.005150  -0.003055   0.051981  -0.002090  -0.001219  11.345400  -0.125594  -0.625849   9.283140   0.001666  -0.009185   6.498200   0.005400  -0.003692   7.218690  -0.589419  -4.643350   7.242550   0.001670   0.006418   4.823530   0.001406   0.000238   9.285850  -1.716880 -10.383600   9.441840   0.003889   0.008628   6.288260   0.003531   0.002058  14.962700  -3.761510 -13.790900  23.126700   0.005082   0.006455  15.402400   0.004643   0.003029   3.711320   8.442330  -2.202070   1.832650  11.340800  14.433900  -6.745350  -7.451580  -3.425710  -0.000000   0.000000   0.000000   1.577460  13.487300  -5.353030   1.637940   1.759820 -14.816300  -0.780634  -5.125050   1.960100  -0.000000   0.000000   0.000000
 -5.371730  89.069900  -0.521944   0.255287 -10.857900  -0.105274   1.087620   6.411650  -0.827901   2.290720  12.805600  -1.796030   3.148160   0.309438  -0.017296   5.172250   0.621937  15.610200   4.091570   5.505420   7.560860 -84.743900 -39.176300 -13.779200   3.725680 -18.661500 -104.475000  38.807400 -13.952200  -0.539562  46.067100  30.644700 -65.705100  -5.824130   0.003713   0.000403   2.087950   0.001887  -0.002008 -13.474100  -1.734930   7.425240 -11.117100  -0.003248   0.004651  -7.781970  -0.002839   0.002797 -11.765500  -1.630190   7.746530 -11.877900  -0.006573   0.000092  -7.910690  -0.004241  -0.001745  -5.644340  -0.804257   7.961090  -5.700750  -0.008508   0.003684  -3.796700  -0.005971   0.000052  -7.967110  -1.668260  11.593400 -12.202100  -0.002285   0.000107  -8.126610  -0.002934   0.000614  -3.139390   4.118490   0.039224  85.235800 -28.748700  27.709300  -9.242700 -26.605100  90.981800 -49.741700   2.914590  15.343000 -44.922200  30.120000  66.064400  10.118300  -0.005228  -0.003169   0.059131  -0.002182  -0.001312  11.460100  -0.133451  -0.652685   9.377210   0.001666  -0.009166   6.564040   0.005439  -0.003698   7.363040  -0.609755  -4.700680   7.388130   0.001710   0.006467   4.920480   0.001435   0.000216   9.672210  -1.778780 -10.349000   9.834000   0.003931   0.008707   6.549470   0.003566   0.002059  15.197200  -3.773330 -13.617800  23.472000   0.005132   0.006477  15.632400   0.004677   0.003041   3.655280   8.429900  -2.205880   1.842160  11.163000  14.401200  -6.688220  -7.368010  -3.425460  -0.000000   0.000000  -0.000000   1.497470  13.420500  -5.284100   1.666600   1.716550 -15.003000  -0.719765  -5.104070   2.016710  -0.000000   0.000000   0.000000
